<svg width="16" height="16" viewBox="0 0 16 16" fill="none" xmlns="http://www.w3.org/2000/svg">
<path fill-rule="evenodd" clip-rule="evenodd" d="M1.78901 2.78543C1.39845 3.17592 1.39845 3.80903 1.78901 4.19952L5.64768 8.05753L1.90389 11.8007C1.51333 12.1912 1.51333 12.8243 1.90388 13.2148L2.91126 14.222C3.30182 14.6125 3.93504 14.6125 4.3256 14.222L8.06939 10.4788L11.676 14.0848C12.0666 14.4753 12.6998 14.4753 13.0903 14.0848L14.0977 13.0776C14.4883 12.6871 14.4883 12.054 14.0977 11.6635L10.4911 8.05753L14.2126 4.33668C14.6031 3.94619 14.6031 3.31308 14.2126 2.92259L13.2052 1.91538C12.8146 1.52489 12.1814 1.52489 11.7909 1.91538L8.06939 5.63623L4.21072 1.77822C3.82017 1.38773 3.18695 1.38773 2.79639 1.77822L1.78901 2.78543Z" fill="#ED1E24"/>
</svg>
